<svg width="2192" height="1462" viewBox="0 0 2192 1462" fill="none" xmlns="http://www.w3.org/2000/svg">
<mask id="mask0_433_1224" style="mask-type:luminance" maskUnits="userSpaceOnUse" x="0" y="0" width="2192" height="1462">
<path d="M0 1462L2192 1462L2192 -0.00012207L0.000127812 -0.000313701L0 1462Z" fill="white"/>
</mask>
<g mask="url(#mask0_433_1224)">
<path d="M2596.42 1519.93C2504.73 1614.78 2338.32 1619.9 2240.22 1530.9C2137.75 1437.69 2120.76 1276.87 2025.04 1176.54C1933.34 1080.23 1788.49 1060.13 1657.52 1070.73C1526.55 1081.33 1397.22 1117.15 1265.88 1110.57C1134.54 1103.99 993.159 1041.67 943.839 917.405C901.095 809.948 937.628 689.698 958.635 576.028C979.641 462.357 975.257 324.198 882.28 256.946C772.68 177.815 634.219 245.981 514.937 252.56C312.543 263.708 109.235 169.957 -2.73997 -1.27971C-116.907 -175.989 -125.674 -415.94 -24.2945 -597.593" stroke="#2C293A" stroke-miterlimit="10"/>
<path d="M2569.57 1537.48C2476.59 1628.12 2312.01 1631.41 2213.92 1543.32C2133.91 1471.69 2103.95 1359.84 2050.25 1266.27C2034.91 1239.59 2017.74 1214.37 1996.91 1192.08C1906.86 1095.04 1767.67 1070.37 1642.9 1075.12C1557.6 1078.59 1473.57 1093.03 1389.73 1098.51C1350.82 1101.07 1312.09 1101.62 1272.64 1097.96C1222.77 1093.21 1170.89 1079.87 1122.49 1057.76C1050.52 1024.86 987.313 974.24 955.894 902.602C947.857 884.144 942.194 865.138 938.358 845.949C920.822 757.316 944.204 661.189 959.182 568.169C961.557 553.367 963.566 538.198 965.028 522.847C974.892 419.959 963.932 309.213 887.577 249.453C874.425 239.219 860.725 231.178 846.842 224.965C793.138 201.573 733.772 205.228 673.492 213.817C625.268 220.761 575.948 231.361 529.55 233.737C518.225 234.285 506.9 234.468 495.574 234.468C434.198 234.285 373.188 225.33 315.1 207.603C193.078 170.322 83.6611 93.5675 11.6904 -14.986C-10.4122 -48.2465 -28.6789 -83.8829 -42.9269 -121.164C-103.024 -277.963 -92.9776 -462.724 -10.9602 -608.741" stroke="#2C293A" stroke-miterlimit="10"/>
<path d="M2542.72 1555.02C2448.46 1641.46 2285.89 1642.74 2187.43 1555.75C2107.06 1484.84 2075.09 1375.01 2021.39 1281.63C2006.05 1255.13 1989.06 1229.91 1968.6 1207.43C1880.01 1109.48 1746.48 1080.42 1627.93 1079.5C1546.82 1078.96 1467.73 1088.82 1389.18 1090.83C1352.65 1091.75 1316.3 1090.65 1279.21 1085.35C1232.27 1078.59 1182.95 1063.24 1135.64 1040.4C1065.13 1006.04 1001.38 957.062 968.133 887.8C959.548 869.89 953.337 851.798 948.953 833.157C928.312 747.448 947.126 653.149 959.73 560.494C961.74 545.874 963.567 530.706 964.663 515.355C973.065 412.649 964.845 303.182 892.692 241.961C880.271 231.544 867.484 223.138 854.149 216.559C803.185 191.705 746.011 192.436 687.009 198.649C639.699 203.583 590.561 213.086 544.164 215.097C532.839 215.645 521.513 215.828 510.371 215.645C449.177 215.462 388.349 207.421 330.261 190.425C208.24 154.789 98.4574 79.1307 25.9388 -28.5091C3.65344 -61.5868 -14.796 -97.0404 -29.2267 -134.139C-90.0547 -290.207 -80.1905 -474.602 2.19216 -620.071" stroke="#2C293A" stroke-miterlimit="10"/>
<path d="M2515.87 1572.56C2420.15 1654.62 2259.77 1654.07 2160.95 1568.36C2080.39 1498.37 2046.23 1390.18 1992.53 1297.34C1977.18 1270.84 1960.38 1245.62 1940.29 1222.96C1853.34 1124.28 1725.29 1090.65 1612.95 1083.89C1536.23 1079.5 1461.7 1084.8 1388.45 1082.98C1354.29 1082.25 1320.5 1079.5 1285.61 1072.56C1241.4 1063.79 1194.64 1046.61 1148.43 1022.67C1079.38 986.85 1014.9 939.335 979.824 872.814C970.69 855.636 963.932 838.092 958.817 820.365C935.07 737.579 949.318 645.107 959.73 552.819C961.374 538.199 962.836 523.213 963.932 507.862C970.69 405.34 965.393 297.151 897.624 234.468C885.933 223.686 873.877 215.097 861.273 208.152C813.049 181.653 758.066 179.643 700.161 183.298C653.764 186.222 604.626 194.629 558.412 196.273C547.086 196.639 535.761 196.822 524.618 196.822C463.608 196.456 402.962 189.512 344.874 173.247C223.036 139.255 112.888 64.5106 39.8211 -42.0327C17.3531 -74.7449 -1.27895 -110.016 -15.7096 -146.931C-77.0856 -302.269 -67.4042 -486.298 15.1611 -631.219" stroke="#2C293A" stroke-miterlimit="10"/>
<path d="M2489.02 1590.29C2392.02 1668.14 2233.46 1665.77 2134.46 1580.97C2053.54 1511.71 2017.37 1405.53 1963.67 1312.88C1948.32 1286.56 1931.52 1261.34 1911.97 1238.5C1826.67 1139.08 1704.1 1100.89 1597.97 1088.46C1525.45 1080.23 1455.85 1080.78 1387.9 1075.48C1356.12 1072.92 1324.7 1068.72 1292.18 1060.13C1250.9 1049.17 1206.7 1030.34 1161.39 1005.49C1093.81 968.208 1028.78 922.155 991.697 858.376C982.016 841.928 974.709 824.932 969.046 807.937C942.194 728.075 951.876 637.431 960.096 545.508C961.374 531.07 962.47 516.085 963.384 500.734C968.498 398.394 966.306 291.485 902.738 227.523C891.961 216.558 880.453 207.603 868.58 200.293C823.096 172.332 770.305 167.398 713.678 168.494C668.377 169.591 619.24 176.718 573.025 177.997C561.7 178.363 550.557 178.363 539.414 178.363C478.586 177.997 418.124 171.784 360.036 156.433C238.197 124.086 127.684 50.4378 54.2517 -55.1918C31.601 -87.7213 12.9689 -122.627 -1.82713 -159.359C-63.9338 -313.783 -54.2523 -497.812 28.4958 -642.002" stroke="#2C293A" stroke-miterlimit="10"/>
<path d="M2461.98 1607.83C2363.71 1681.48 2207.16 1677.1 2107.97 1593.4C2026.87 1525.05 1988.69 1420.52 1934.62 1328.41C1919.28 1302.09 1902.66 1276.87 1883.48 1254.03C1799.81 1153.7 1682.73 1110.94 1582.81 1092.84C1514.49 1080.6 1449.83 1076.76 1386.99 1067.62C1357.76 1063.42 1328.72 1057.39 1298.39 1047.34C1260.03 1034.36 1218.2 1013.71 1174 987.763C1108.06 948.837 1042.3 904.429 1003.39 843.208C993.341 827.309 985.304 811.227 978.91 794.779C948.77 717.659 954.25 628.842 960.096 537.467C961.009 523.03 961.922 508.227 962.47 492.876C965.941 390.536 966.672 285.089 907.488 219.665C897.441 208.517 886.664 199.197 875.521 191.521C832.777 162.098 782.178 154.24 726.648 152.961C682.26 152.047 633.122 158.078 586.908 158.992C575.582 159.174 564.44 159.357 553.297 159.174C492.652 158.809 432.372 153.509 374.466 138.889C252.628 108.187 141.749 35.6353 67.7693 -69.0804C44.936 -101.244 26.1213 -135.967 11.1426 -172.517C-51.512 -326.21 -42.0135 -509.873 40.9172 -653.515" stroke="#2C293A" stroke-miterlimit="10"/>
<path d="M2435.13 1625.38C2335.58 1694.64 2181.04 1688.61 2081.49 1606.01C2000.02 1538.39 1959.83 1435.87 1905.76 1344.13C1890.42 1317.99 1873.98 1292.77 1854.98 1269.75C1772.96 1168.69 1661.35 1121.35 1567.65 1097.6C1503.71 1081.33 1443.98 1072.93 1386.26 1060.32C1359.41 1054.47 1332.92 1046.79 1304.97 1035.1C1269.35 1020.11 1230.26 997.632 1186.97 970.768C1122.49 930.38 1056 887.434 1015.26 828.954C1004.67 813.786 996.082 798.252 989.14 782.536C955.895 708.339 956.626 621.35 960.279 530.158C960.827 515.721 961.375 500.918 961.74 485.932C963.567 383.775 967.22 279.608 912.42 212.721C903.104 201.391 893.24 191.705 882.646 183.481C842.642 152.596 794.235 141.631 739.983 137.976C696.691 135.052 647.554 139.987 601.339 140.535C590.196 140.718 578.871 140.718 567.911 140.718C507.448 140.169 447.351 135.966 389.446 122.077C267.79 93.0198 156.363 21.5646 82.0175 -82.2375C59.1842 -114.219 40.0043 -148.576 24.843 -184.943C-38.5423 -337.722 -29.0436 -521.386 54.0697 -664.296" stroke="#2C293A" stroke-miterlimit="10"/>
<path d="M2408.28 1642.92C2307.26 1707.98 2154.92 1699.94 2055 1618.43C1973.35 1551.73 1930.97 1450.85 1876.9 1359.48C1861.37 1333.34 1845.12 1308.31 1826.67 1285.1C1746.11 1183.12 1640.35 1131.4 1552.85 1101.8C1493.12 1081.7 1438.32 1068.72 1385.89 1052.27C1361.41 1044.6 1337.3 1035.46 1311.73 1022.12C1279.03 1004.94 1242.32 980.818 1200.3 952.858C1137.28 911.008 1070.24 869.706 1027.5 813.602C1016.36 798.982 1007.41 784.179 999.552 769.194C963.019 697.921 959.365 612.76 960.827 521.933C961.009 507.678 961.375 492.876 961.375 477.89C961.557 375.916 968.133 273.028 917.717 204.679C909.132 193.166 899.999 183.115 889.952 174.525C852.688 142.179 806.291 128.29 753.5 122.259C711.122 117.325 661.984 120.98 615.952 121.345C604.81 121.345 593.667 121.345 582.524 121.345C522.244 120.797 462.329 117.324 404.424 104.349C282.768 77.1194 171.159 6.39531 96.2655 -96.3102C73.2495 -127.926 53.8869 -162.283 38.7255 -198.285C-25.3904 -350.333 -15.8919 -533.631 67.4042 -675.811" stroke="#2C293A" stroke-miterlimit="10"/>
<path d="M2381.43 1660.47C2279.13 1721.32 2128.61 1711.45 2028.7 1630.86C1946.68 1564.89 1902.47 1466.02 1848.22 1375.01C1832.69 1349.06 1816.62 1323.84 1798.54 1300.45C1719.62 1197.74 1619.34 1141.46 1538.05 1106.19C1482.71 1082.06 1432.84 1064.52 1385.34 1044.6C1363.42 1035.28 1341.69 1024.5 1318.31 1009.51C1288.53 990.323 1254.37 964.189 1213.27 935.498C1151.71 892.186 1084.13 852.346 1039.56 798.983C1028.05 785.094 1018.37 771.023 1009.96 756.585C970.143 688.054 962.105 604.903 961.375 514.442C961.192 500.187 961.192 485.567 961.009 470.582C959.731 368.79 969.047 267.181 923.015 197.553C915.16 185.857 906.757 175.44 897.441 166.485C862.735 132.677 818.712 115.864 767.017 107.275C725.735 100.513 676.597 102.888 630.383 102.888C619.24 102.888 608.097 102.889 597.137 102.706C537.04 102.158 477.308 99.599 419.403 87.3547C297.929 61.7697 185.772 -7.85805 110.331 -109.65C87.132 -141.083 67.5868 -175.074 52.2428 -211.076C-12.4212 -362.393 -3.10537 -545.326 80.3733 -686.957" stroke="#2C293A" stroke-miterlimit="10"/>
<path d="M2354.57 1678.19C2251 1734.66 2102.49 1722.97 2002.21 1643.65C1919.83 1578.6 1873.61 1481.37 1819.36 1390.73C1803.83 1364.78 1787.94 1339.74 1770.22 1316.17C1692.95 1212.55 1598.15 1151.87 1523.07 1110.76C1471.93 1082.79 1427.17 1060.86 1384.8 1036.92C1365.43 1025.96 1345.89 1013.53 1324.88 996.902C1297.85 975.52 1266.25 947.742 1226.24 917.954C1166.33 872.997 1097.83 834.802 1051.43 783.998C1039.37 770.84 1029.14 757.317 1020.01 743.61C976.901 678.003 964.663 596.679 961.557 506.583C961.009 492.512 960.827 477.892 960.279 462.906C957.539 361.114 969.595 261.15 927.947 189.878C921.005 177.999 913.151 167.399 904.565 157.896C872.599 122.626 830.768 102.889 780.352 91.9236C739.983 83.1516 691.028 84.4309 644.813 84.0654C633.671 83.8826 622.528 83.8826 611.568 83.6999C551.653 83.1516 492.104 81.3241 434.199 69.9936C312.725 46.0533 200.203 -22.4779 124.396 -123.356C101.015 -154.423 81.2867 -188.232 65.76 -224.051C0.365367 -374.455 9.68151 -557.387 93.5255 -698.288" stroke="#2C293A" stroke-miterlimit="10"/>
<path d="M2327.72 1695.74C2222.69 1748 2076.19 1734.48 1975.72 1656.08C1893.16 1591.94 1844.75 1496.54 1790.5 1406.26C1774.97 1380.49 1759.08 1355.27 1741.91 1331.7C1666.29 1227.35 1577.14 1162.11 1508.1 1115.32C1461.15 1083.53 1421.69 1057.03 1384.07 1029.43C1367.08 1017 1350.09 1002.57 1331.27 984.475C1307.16 961.083 1278.12 931.477 1239.03 900.775C1180.57 854.357 1111.53 817.624 1063.12 769.561C1050.52 756.951 1039.74 744.158 1030.06 731.183C983.66 668.5 967.037 589.004 961.557 499.273C960.644 485.202 960.096 470.764 959.365 455.779C954.982 354.17 969.96 255.485 932.513 182.75C926.303 170.506 919.179 159.724 911.324 149.855C882.097 113.123 842.459 90.4615 793.321 76.938C753.866 66.1558 704.911 66.3386 658.879 65.6076C647.736 65.4248 636.594 65.2421 625.816 65.2421C566.084 64.5111 506.718 63.78 448.995 53.1805C327.704 30.885 214.816 -36.5497 138.462 -136.514C114.898 -167.399 94.9869 -200.842 79.2776 -236.478C13.3349 -386.151 22.4683 -568.718 106.495 -709.07" stroke="#2C293A" stroke-miterlimit="10"/>
<path d="M2300.69 1713.28C2194.37 1761.34 2050.07 1745.81 1949.24 1668.51C1866.31 1605.09 1815.89 1511.52 1761.64 1421.61C1746.11 1395.84 1730.4 1370.81 1713.6 1347.05C1639.62 1241.97 1555.95 1172.34 1493.12 1119.53C1450.56 1083.71 1416.03 1053.01 1383.52 1021.57C1369.09 1007.5 1354.29 991.418 1337.85 971.681C1316.48 946.096 1290.17 914.846 1252.18 883.048C1195.19 835.167 1125.41 800.079 1075.18 754.391C1062.02 742.513 1050.52 730.451 1040.29 718.024C990.601 658.265 969.595 580.413 961.923 491.231C960.644 477.342 959.731 462.905 959 447.92C952.972 346.493 970.873 249.27 937.811 175.074C932.331 162.647 926.12 151.499 918.813 141.265C892.327 103.07 854.88 77.4854 806.839 61.4034C768.479 48.6109 719.524 47.6972 673.309 46.6007C662.167 46.4179 651.207 46.2351 640.247 46.0523C580.697 45.3213 521.513 45.5042 463.791 35.6357C342.5 14.9849 229.247 -51.5363 152.527 -150.404C128.78 -180.923 108.687 -214.184 92.9775 -249.637C26.3042 -398.396 35.4375 -580.78 119.647 -720.584" stroke="#2C293A" stroke-miterlimit="10"/>
<path d="M2273.83 1730.83C2166.24 1774.5 2023.76 1757.32 1922.75 1681.12C1839.64 1618.62 1787.21 1526.88 1732.78 1437.33C1717.25 1411.74 1701.72 1386.52 1685.1 1362.77C1612.58 1256.77 1534.58 1182.76 1477.96 1124.28C1439.6 1084.62 1410.19 1049.72 1382.79 1014.08C1370.91 998.546 1358.49 980.637 1344.24 959.255C1325.79 931.66 1301.87 898.582 1264.97 865.87C1209.44 816.527 1139.11 782.901 1087.05 739.955C1073.35 728.807 1061.29 717.294 1050.52 705.598C997.36 648.58 972.152 572.739 962.288 483.922C960.827 470.033 959.548 455.596 958.452 440.793C950.78 339.55 971.604 243.606 942.925 167.948C938.176 155.338 932.696 143.825 926.12 133.042C902.191 93.3856 867.119 64.8766 820.356 46.4189C782.909 31.6161 733.955 29.6059 687.923 28.1439C676.78 27.7784 665.82 27.5956 655.043 27.4128C595.676 26.6818 536.675 27.5955 478.952 18.6407C357.661 -0.365286 244.043 -65.7898 166.775 -163.744C142.845 -194.08 122.569 -227.158 106.677 -262.246C39.2734 -410.274 48.4068 -592.475 132.799 -731.548" stroke="#2C293A" stroke-miterlimit="10"/>
<path d="M2246.98 1748.55C2138.11 1788.03 1997.64 1768.84 1896.26 1693.73C1812.78 1631.96 1758.35 1542.04 1703.91 1453.04C1688.39 1427.46 1672.86 1402.42 1656.79 1378.3C1585.91 1271.57 1513.39 1192.99 1463.16 1128.66C1429.18 1085.17 1404.52 1046.24 1382.24 1006.4C1372.74 989.407 1362.69 969.488 1350.82 946.644C1335.29 916.856 1313.92 881.95 1277.94 848.324C1224.05 797.52 1152.81 765.356 1098.92 724.968C1084.86 714.369 1072.07 703.586 1060.56 692.621C1004.12 638.527 974.709 564.514 962.471 475.88C960.644 462.174 959 447.736 957.721 432.934C948.405 331.69 971.969 237.391 947.857 160.088C943.839 147.295 939.089 135.416 933.244 124.269C912.055 83.3327 879.175 51.7171 833.508 30.7008C797.157 14.0705 748.203 10.5982 702.171 8.95349C691.028 8.58799 680.068 8.22245 669.473 8.22245C610.289 7.30869 551.471 9.31889 493.748 1.09513C372.64 -16.2661 258.473 -80.5941 180.84 -177.634C156.728 -207.605 136.452 -240.5 120.195 -275.406C52.2426 -422.702 61.1933 -604.538 145.768 -743.063" stroke="#2C293A" stroke-miterlimit="10"/>
<path d="M2220.13 1766.1C2109.8 1801.37 1971.52 1780.35 1869.96 1706.15C1786.3 1645.3 1729.67 1557.21 1675.24 1468.4C1659.53 1442.99 1644.37 1417.96 1628.66 1393.65C1559.43 1286.01 1492.39 1203.23 1448.36 1133.05C1418.59 1085.72 1398.86 1042.59 1381.87 998.546C1374.75 980.089 1367.26 958.341 1357.58 933.853C1344.79 901.872 1325.98 865.322 1291.09 830.782C1238.66 778.333 1166.87 747.813 1110.98 710.167C1096.37 700.298 1083.03 690.247 1070.97 679.83C1011.06 628.843 977.449 556.474 962.836 468.206C960.644 454.5 958.817 440.245 957.173 425.625C946.213 324.564 972.7 231.545 952.972 152.962C949.684 139.987 945.665 127.742 940.551 116.229C922.101 73.8312 891.413 39.2914 847.025 15.8994C811.588 -2.74112 762.633 -7.30974 716.601 -9.32C705.459 -9.86825 694.499 -10.051 683.904 -10.2337C624.903 -11.1475 566.267 -8.40626 508.544 -15.7163C387.436 -31.4328 273.087 -94.6643 194.905 -190.791C170.611 -220.579 150.152 -253.109 133.712 -287.831C65.0294 -434.214 73.98 -616.05 158.737 -753.661" stroke="#2C293A" stroke-miterlimit="10"/>
<path d="M2193.28 1783.64C2081.67 1814.52 1945.22 1791.68 1843.47 1718.76C1759.44 1658.64 1700.99 1572.38 1646.37 1484.11C1630.67 1458.71 1615.69 1433.67 1600.34 1409.37C1532.76 1301 1471.2 1213.64 1433.39 1137.62C1407.81 1086.45 1392.83 1039.12 1381.14 991.053C1376.39 971.133 1371.46 947.376 1363.97 921.425C1354.11 887.434 1337.85 849.056 1303.87 813.42C1252.91 759.509 1180.39 730.634 1122.85 695.546C1107.69 686.226 1093.81 676.906 1081.2 667.22C1017.82 619.157 980.006 548.615 963.201 460.712C960.644 447.006 958.452 432.934 956.625 418.314C944.021 317.436 973.248 225.879 958.087 145.651C955.529 132.493 952.241 120.066 947.857 108.005C931.965 64.1448 903.469 26.6811 860.542 0.730603C826.201 -19.9202 777.246 -25.5855 731.214 -27.9613C720.254 -28.5095 709.294 -28.875 698.7 -29.0578C639.881 -29.9715 581.428 -26.3165 523.888 -32.8955C402.962 -46.9672 288.065 -109.285 209.336 -204.315C184.858 -233.738 164.217 -266.084 147.777 -300.807C78.5464 -446.459 87.3144 -627.929 172.254 -764.992" stroke="#2C293A" stroke-miterlimit="10"/>
<path d="M2166.43 1801.18C2053.54 1827.87 1919.1 1803.01 1816.98 1731.19C1732.78 1671.98 1672.13 1587.55 1617.51 1499.46C1601.8 1474.24 1586.82 1449.21 1572.03 1424.72C1505.9 1315.43 1450.01 1223.88 1418.41 1142C1397.03 1087 1386.8 1035.64 1380.59 983.195C1378.04 961.813 1375.84 936.228 1370.55 908.633C1363.61 872.448 1349.72 832.426 1317.03 795.876C1267.52 740.503 1194.27 713.09 1134.91 680.561C1119.2 671.972 1104.77 663.382 1091.43 654.245C1024.76 609.105 982.746 540.391 963.566 452.854C960.644 439.331 958.269 425.259 956.077 410.639C941.829 309.944 973.978 219.848 963.201 137.976C961.374 124.635 958.817 111.843 955.164 99.4157C941.829 54.2764 915.708 13.7059 873.877 -14.8031C840.449 -37.4641 791.494 -44.2258 745.645 -46.9671C734.685 -47.6981 723.725 -48.0637 713.13 -48.0637C654.494 -48.9775 596.224 -44.4087 538.684 -50.2567C417.758 -62.5009 302.496 -123.905 223.401 -218.021C198.924 -247.261 177.917 -279.242 161.294 -313.782C91.3332 -458.52 100.101 -639.808 185.224 -776.323" stroke="#2C293A" stroke-miterlimit="10"/>
<path d="M2139.39 1818.91C2025.22 1841.39 1892.79 1814.71 1790.5 1743.8C1705.92 1685.32 1643.27 1602.72 1588.65 1515.18C1572.94 1489.96 1558.15 1464.92 1543.53 1440.44C1479.05 1330.42 1428.64 1234.29 1403.25 1146.57C1386.26 1087.73 1380.41 1031.99 1379.86 975.703C1379.68 952.859 1379.86 925.446 1376.94 896.206C1372.92 857.829 1361.6 816.162 1329.81 778.698C1281.95 721.863 1207.97 696.095 1146.6 666.124C1130.52 658.266 1115.36 650.225 1101.48 641.818C1031.34 599.786 985.121 532.534 963.749 445.545C960.461 432.021 957.721 418.132 955.347 403.512C939.272 303 974.344 214.183 968.133 131.032C967.037 117.508 965.21 104.35 962.288 91.3752C951.693 44.774 927.764 1.27955 887.212 -29.6052C854.697 -54.2765 805.925 -62.1346 760.076 -65.2414C749.116 -65.9724 738.156 -66.338 727.744 -66.5207C669.29 -67.6172 611.203 -62.1346 553.663 -67.0689C432.92 -77.6684 317.109 -137.976 237.649 -231.178C212.989 -260.053 191.8 -292.034 174.994 -326.208C104.485 -470.216 112.888 -651.321 198.376 -787.104" stroke="#2C293A" stroke-miterlimit="10"/>
<path d="M2112.54 1836.45C1996.91 1854.55 1866.67 1826.04 1764.01 1756.41C1679.25 1698.84 1614.41 1618.07 1559.79 1530.71C1544.08 1505.68 1529.29 1480.64 1515.22 1455.97C1452.38 1345.22 1407.45 1244.53 1388.27 1151.14C1375.48 1088.28 1374.2 1028.33 1379.13 968.209C1381.14 943.904 1384.07 914.481 1383.33 883.779C1382.24 843.391 1373.29 799.897 1342.6 761.336C1296.2 702.856 1221.49 678.733 1158.47 651.321C1141.85 644.011 1126.14 636.884 1111.53 629.025C1037.91 590.1 987.679 524.492 963.749 437.869C960.096 424.528 956.991 410.456 954.616 396.019C936.897 295.507 974.71 208.335 973.066 123.539C972.7 109.833 971.604 96.3091 969.412 82.9684C961.375 34.9051 939.82 -11.5133 900.364 -44.9565C868.945 -71.4553 820.173 -80.7756 774.141 -84.0651C763.181 -84.7961 752.221 -85.3444 741.809 -85.5272C683.539 -86.6237 625.633 -80.2274 568.093 -84.6134C447.351 -93.5682 331.357 -152.962 251.167 -245.068C226.324 -273.76 204.952 -305.375 187.964 -339.367C116.724 -482.643 125.127 -663.383 210.797 -798.618" stroke="#2C293A" stroke-miterlimit="10"/>
<path d="M2085.69 1854C1968.78 1867.89 1840.37 1837.55 1737.53 1768.84C1652.4 1712 1585.73 1633.05 1530.93 1546.25C1515.22 1521.39 1500.61 1496.17 1486.91 1471.32C1425.71 1359.66 1386.26 1254.76 1373.47 1155.35C1364.89 1088.64 1368.17 1024.31 1378.77 960.168C1382.97 934.218 1388.63 903.15 1390.09 870.803C1391.92 828.223 1385.53 782.901 1355.75 743.609C1310.82 683.667 1235.56 661.006 1170.53 636.335C1153.36 629.756 1136.92 623.177 1121.94 616.233C1044.67 580.231 990.419 516.268 964.115 430.01C960.096 416.67 956.808 402.781 954.068 388.343C934.705 288.014 975.257 202.121 977.997 115.863C978.363 101.974 978.18 88.085 976.536 74.3788C971.056 24.8535 951.876 -24.6716 913.699 -60.3079C883.194 -88.8169 834.422 -99.2337 788.572 -102.889C777.612 -103.802 766.835 -104.351 756.423 -104.533C698.335 -105.63 640.612 -98.32 583.255 -101.975C462.695 -109.285 346.153 -167.582 265.597 -258.774C240.572 -287.101 219.018 -318.534 202.03 -352.343C130.059 -494.705 138.461 -675.444 224.315 -809.948" stroke="#2C293A" stroke-miterlimit="10"/>
<path d="M2058.84 1871.54C1940.65 1881.23 1814.25 1848.88 1711.22 1781.26C1625.73 1725.34 1557.05 1648.22 1502.25 1561.78C1486.54 1536.93 1472.11 1511.89 1458.78 1486.85C1399.23 1374.46 1365.07 1264.99 1358.67 1159.91C1354.11 1089.37 1362.15 1020.66 1378.4 952.675C1384.98 925.08 1393.2 892.367 1396.85 858.376C1401.6 813.785 1397.58 766.635 1368.9 726.248C1325.43 664.844 1249.44 643.827 1182.58 621.532C1164.87 615.684 1147.88 609.836 1132.17 603.44C1051.79 570.727 993.159 508.409 964.663 422.334C960.279 409.176 956.625 395.287 953.703 380.85C932.879 280.703 975.988 196.272 983.295 108.37C984.391 94.2979 984.939 80.2261 984.025 65.9716C981.103 15.1671 964.297 -37.4649 927.399 -75.6597C897.989 -106.179 849.217 -117.692 803.368 -121.713C792.408 -122.626 781.631 -123.175 771.219 -123.357C713.313 -124.454 655.774 -116.413 598.416 -119.154C477.856 -124.819 360.949 -182.02 280.028 -272.299C254.82 -300.442 233.083 -331.51 215.912 -365.136C143.393 -506.767 151.614 -687.141 237.65 -821.097" stroke="#2C293A" stroke-miterlimit="10"/>
<path d="M2031.98 1889.27C1912.52 1894.75 1788.12 1860.58 1684.73 1794.06C1599.06 1738.87 1528.19 1663.57 1473.21 1577.5C1457.31 1552.83 1443.07 1527.79 1430.28 1502.57C1372.19 1389.26 1343.7 1275.41 1343.51 1164.48C1343.33 1090.1 1355.75 1017 1377.49 945C1386.26 915.942 1397.22 881.403 1403.06 845.766C1410.73 798.982 1409.27 750.188 1381.69 708.887C1339.68 646.021 1262.96 626.649 1194.46 606.912C1176.19 601.795 1158.65 596.495 1142.4 590.83C1058.55 561.225 995.716 500.369 965.028 414.842C960.279 401.684 956.26 387.978 953.155 373.54C930.687 273.576 976.536 190.425 988.409 101.243C990.236 86.9883 991.515 72.5511 991.332 57.9311C991.149 5.66457 976.536 -49.8916 940.733 -90.4621C912.237 -122.992 863.465 -135.601 817.616 -139.987C806.656 -141.084 795.879 -141.632 785.649 -141.815C727.927 -143.094 670.569 -133.957 613.212 -135.967C492.652 -139.987 375.38 -196.092 294.093 -285.456C268.703 -313.234 246.966 -344.119 229.43 -377.745C156.18 -518.463 164.4 -698.654 250.619 -831.879" stroke="#2C293A" stroke-miterlimit="10"/>
<path d="M2004.95 1906.81C1884.21 1907.91 1761.82 1871.91 1658.25 1806.48C1572.21 1752.21 1499.33 1678.56 1444.35 1593.03C1428.45 1568.36 1414.39 1543.32 1401.97 1518.1C1345.52 1404.07 1322.51 1285.65 1328.53 1169.05C1332.55 1090.65 1349.54 1013.17 1376.94 937.507C1388.08 906.805 1401.6 870.438 1409.64 833.34C1420.23 784.546 1421.33 733.924 1394.66 691.526C1354.29 627.015 1276.84 609.288 1206.33 592.11C1187.7 587.541 1169.43 583.155 1152.44 578.038C1065.13 551.539 998.091 492.328 965.028 407.167C959.913 394.192 955.712 380.485 952.241 366.231C928.129 266.267 976.536 184.577 993.159 93.9334C995.716 79.3134 997.725 64.6933 998.273 49.525C1000.47 -4.20346 988.409 -62.6835 953.885 -105.812C926.303 -140.169 877.713 -154.058 831.864 -158.81C820.904 -159.906 810.309 -160.455 799.897 -160.82C742.357 -162.099 685.183 -152.231 627.825 -153.328C507.448 -155.703 389.811 -210.894 307.793 -299.162C282.22 -326.757 260.3 -357.459 242.581 -390.72C168.784 -530.706 176.821 -710.715 263.405 -843.209" stroke="#2C293A" stroke-miterlimit="10"/>
<path d="M1978.1 1924.36C1754.33 1918.69 1536.96 1796.62 1415.48 1608.57C1279.76 1398.59 1283.6 1153.7 1376.21 929.649C1407.08 854.904 1452.38 750.189 1407.45 673.799C1358.13 590.465 1246.33 586.627 1162.49 565.063C1058.01 538.198 979.276 465.647 951.511 358.555C921.553 242.874 995.533 153.144 1005.4 41.1184C1010.33 -14.0722 1000.28 -75.4762 967.037 -121.164C934.157 -166.303 867.484 -178.547 814.328 -179.826C756.971 -181.106 699.979 -170.323 642.621 -170.689C484.797 -171.603 330.809 -264.44 256.281 -403.695C181.753 -542.951 189.791 -722.594 276.557 -854.54" stroke="#2C293A" stroke-miterlimit="10"/>
<path d="M1999.47 1914.67C1885.12 1912.66 1772.41 1882.33 1672.13 1828.41C1574.04 1775.6 1487.64 1699.58 1425.71 1606.37C1378.59 1535.47 1347.9 1459.62 1332.37 1381.22C1317.76 1307.39 1316.66 1231.92 1327.44 1157.72C1335.48 1101.8 1350.09 1046.79 1369.82 992.515C1378.04 969.854 1387.17 947.559 1397.03 925.263C1409.27 897.851 1423.52 866.235 1434.12 833.523C1452.2 777.601 1461.33 716.928 1432.84 667.951C1401.97 615.136 1345.34 593.572 1287.07 580.231C1252.73 572.373 1217.66 567.256 1186.42 560.129C1157.92 553.55 1131.44 543.681 1106.96 531.071C1051.98 502.197 1008.69 457.971 982.564 399.674C977.632 388.526 973.248 376.83 969.412 364.769C949.684 298.979 964.297 240.316 982.199 180.557C994.803 138.159 1009.05 95.03 1012.89 48.246C1013.07 46.6012 1013.07 44.9565 1013.25 43.129C1016.72 -10.965 1007.22 -70.7242 974.709 -115.132C952.607 -145.469 915.343 -161.368 876.983 -168.678C857.255 -172.516 837.161 -173.978 818.529 -173.978C797.523 -174.161 776.516 -172.516 755.692 -170.506C718.611 -166.668 681.529 -161.185 644.448 -160.089C600.608 -158.627 557.133 -163.744 515.303 -175.075C438.217 -195.543 366.064 -236.661 309.985 -295.141C285.873 -320.361 264.867 -348.87 247.696 -379.937C241.12 -391.816 235.092 -404.243 229.795 -416.67C171.889 -552.088 186.137 -717.294 268.52 -839.371" stroke="#2C293A" stroke-miterlimit="10"/>
<path d="M2020.84 1904.8C1905.21 1903.71 1790.86 1875.56 1688.75 1823.48C1588.83 1772.31 1499.88 1697.38 1436.13 1604C1387.72 1533.09 1356.12 1456.7 1341.14 1376.66C1326.89 1301.91 1327.44 1225.34 1340.41 1151.14C1350.27 1095.22 1366.89 1040.76 1388.45 987.032C1397.4 964.737 1407.26 942.441 1417.86 920.328C1431.01 892.916 1445.99 861.666 1457.31 828.771C1476.49 773.215 1486.72 711.08 1458.23 661.554C1427.54 608.557 1370 586.261 1311.73 573.286C1277.21 565.611 1241.95 561.042 1210.35 554.463C1181.67 548.432 1155 539.66 1130.34 527.964C1074.81 501.465 1030.24 460.164 1002.11 404.06C996.629 393.277 991.88 382.13 987.679 370.251C965.576 306.471 976.901 247.991 992.793 187.866C1003.94 145.103 1017.27 101.608 1020.92 54.6416C1021.11 52.9969 1021.11 51.352 1021.29 49.5245C1024.58 -4.93498 1015.44 -65.0598 982.747 -109.834C960.096 -140.901 922.101 -157.166 883.011 -164.293C862.735 -167.948 842.276 -169.227 823.461 -169.045C802.089 -168.862 780.717 -166.852 759.528 -164.293C721.899 -159.542 684.452 -152.963 647.005 -150.404C602.8 -147.297 558.96 -150.404 516.581 -159.542C438.4 -176.355 363.689 -213.636 305.053 -271.567C279.845 -296.604 257.925 -325.296 240.207 -356.729C233.448 -368.79 227.237 -381.4 221.575 -394.01C161.295 -531.803 176.273 -701.213 261.762 -824.934" stroke="#2C293A" stroke-miterlimit="10"/>
<path d="M2042.21 1895.12C1925.31 1894.93 1809.5 1869.17 1705.19 1818.73C1603.63 1769.39 1511.75 1695.19 1446.35 1601.8C1396.85 1530.9 1364.34 1453.78 1349.72 1372.27C1336.02 1296.43 1338.03 1219.12 1353.38 1144.93C1364.89 1089.01 1383.7 1035.28 1407.08 982.098C1416.95 959.985 1427.36 937.872 1438.68 915.942C1452.75 888.53 1468.64 857.462 1480.51 824.567C1500.61 769.194 1512.3 705.963 1483.8 655.706C1453.3 602.343 1394.84 579.5 1336.39 566.89C1301.68 559.397 1266.25 555.377 1234.28 549.529C1205.6 544.229 1178.57 536.188 1153.54 525.588C1097.46 501.283 1051.61 462.905 1021.29 408.994C1015.44 398.76 1010.15 387.795 1005.58 376.282C981.103 314.512 988.957 256.215 1003.02 195.724C1012.7 152.778 1025.31 108.736 1028.41 61.586C1028.6 59.9413 1028.6 58.1138 1028.78 56.469C1031.7 1.82679 1023.3 -59.0291 990.419 -103.986C967.22 -135.784 928.495 -152.414 888.491 -159.359C867.849 -163.014 847.025 -163.928 827.663 -163.379C805.925 -162.831 784.188 -160.455 762.634 -157.166C724.274 -151.501 686.644 -143.642 648.832 -139.622C604.262 -134.87 560.056 -135.967 516.947 -143.094C437.487 -156.069 360.401 -189.878 299.391 -247.262C273.087 -272.116 250.253 -300.99 231.804 -332.789C224.68 -345.033 218.287 -357.643 212.442 -370.618C149.787 -510.605 165.496 -684.582 254.09 -809.583" stroke="#2C293A" stroke-miterlimit="10"/>
<path d="M2063.58 1885.25C1945.4 1886.16 1828.13 1862.4 1721.82 1813.79C1618.43 1766.1 1523.8 1692.99 1456.58 1599.61C1405.8 1528.89 1372.37 1451.03 1358.31 1367.88C1345.16 1291.13 1348.63 1212.73 1366.16 1138.71C1379.5 1082.79 1400.51 1029.61 1425.71 976.98C1436.31 955.05 1447.45 933.303 1459.51 911.373C1474.49 883.961 1491.11 853.076 1503.71 819.998C1524.72 764.99 1537.87 700.297 1509.37 649.492C1479.05 595.764 1419.69 572.372 1361.23 560.128C1326.16 552.818 1290.72 549.345 1258.39 544.228C1229.53 539.66 1202.31 532.35 1177.1 522.664C1120.29 500.734 1073.35 465.28 1041.02 413.562C1034.81 403.694 1028.96 393.277 1024.03 381.946C997.177 322.187 1001.93 264.073 1013.62 203.4C1022.02 160.088 1033.53 115.862 1036.27 68.3474C1036.45 66.7027 1036.45 64.8751 1036.45 63.2303C1039.01 8.22256 1031.34 -53.1814 998.09 -98.5035C974.344 -130.85 934.888 -148.029 894.153 -154.79C873.147 -158.263 851.957 -159.176 832.047 -158.263C809.761 -157.349 787.841 -154.425 766.104 -150.77C727.196 -144.191 689.201 -135.236 651.024 -129.754C606.088 -123.357 561.517 -122.444 517.86 -127.378C437.304 -136.698 357.661 -166.669 294.093 -223.505C266.693 -247.993 243.129 -277.233 223.949 -309.58C216.643 -322.007 209.884 -334.799 203.856 -347.957C138.827 -490.32 155.267 -668.501 246.965 -794.964" stroke="#2C293A" stroke-miterlimit="10"/>
<path d="M2084.96 1875.56C1965.31 1877.39 1846.58 1855.83 1738.44 1809.04C1633.22 1763.17 1536.04 1690.99 1467 1597.42C1414.94 1526.69 1380.78 1448.11 1367.08 1363.5C1354.29 1285.83 1359.41 1206.52 1379.32 1132.5C1394.48 1076.58 1417.49 1023.95 1444.53 972.047C1455.85 950.3 1467.91 928.735 1480.51 906.988C1496.41 879.575 1513.94 848.873 1527.09 815.796C1549.01 760.971 1563.44 694.998 1534.95 643.645C1504.81 589.734 1444.53 565.611 1385.89 553.732C1350.64 546.605 1314.83 543.681 1282.32 539.112C1253.28 535.092 1225.88 528.878 1200.3 520.106C1142.95 500.369 1094.72 467.84 1060.2 418.497C1053.62 408.994 1047.23 398.943 1041.75 388.161C1012.7 330.412 1013.98 272.297 1023.66 211.441C1030.61 167.947 1041.2 123.173 1043.76 75.4753C1043.76 73.8305 1043.94 72.003 1043.94 70.3583C1046.13 15.1678 1039.19 -46.7844 1005.76 -92.4719C981.468 -125.55 941.281 -143.094 899.633 -149.855C878.261 -153.328 856.524 -153.876 836.248 -152.779C813.597 -151.5 791.312 -148.211 769.209 -144.008C729.753 -136.515 691.393 -126.464 652.851 -119.519C607.549 -111.478 562.613 -108.371 518.225 -111.478C436.573 -116.961 354.191 -143.276 288.248 -199.563C259.752 -223.869 235.275 -253.292 215.364 -286.004C207.692 -298.614 200.751 -311.589 194.54 -325.113C127.136 -469.851 144.307 -652.418 239.111 -780.16" stroke="#2C293A" stroke-miterlimit="10"/>
<path d="M2106.33 1865.7C1985.4 1868.44 1865.21 1849.25 1755.06 1804.11C1648.02 1760.07 1548.1 1688.79 1477.23 1595.04C1424.07 1524.32 1389 1445 1375.66 1358.93C1363.61 1280.16 1370 1199.94 1392.1 1125.92C1408.91 1070 1434.12 1018.1 1462.98 966.748C1475.03 945.366 1487.82 923.802 1501.15 902.237C1517.96 875.007 1536.23 844.305 1550.11 811.228C1572.94 756.768 1588.83 689.516 1560.34 637.432C1530.38 583.156 1469.19 558.484 1410.55 546.971C1375.11 540.209 1339.13 537.651 1306.25 533.813C1277.02 530.524 1249.44 525.041 1223.5 517.366C1165.41 500.004 1116.09 470.216 1079.56 423.249C1072.44 414.112 1065.86 404.426 1059.83 394.009C1028.6 338.271 1026.4 280.339 1034.08 219.3C1039.56 175.623 1049.24 130.301 1051.43 82.4205C1051.43 80.7758 1051.61 78.9483 1051.61 77.3035C1053.62 21.7475 1047.23 -40.7529 1013.43 -86.6231C988.592 -120.432 947.492 -138.341 905.296 -144.92C883.376 -148.21 861.456 -148.575 840.815 -147.113C817.799 -145.469 794.965 -141.631 772.68 -137.062C732.676 -128.656 693.768 -117.325 655.043 -109.101C609.193 -99.4155 563.892 -94.2985 519.139 -95.395C436.208 -97.2225 351.451 -119.884 283.133 -175.622C253.541 -199.563 228.151 -229.351 207.692 -262.611C199.837 -275.404 192.531 -288.562 186.137 -302.268C116.359 -449.382 134.26 -636.152 232.169 -765.539" stroke="#2C293A" stroke-miterlimit="10"/>
<path d="M2127.7 1856.01C2005.5 1859.66 1883.84 1842.67 1771.68 1799.36C1662.81 1756.96 1560.16 1686.6 1487.64 1592.85C1433.2 1522.12 1397.4 1442.26 1384.61 1354.54C1372.92 1274.86 1380.96 1193.72 1405.44 1119.71C1424.07 1063.79 1451.47 1012.43 1482.16 961.63C1495.13 940.431 1508.46 919.232 1522.53 897.85C1540.43 870.621 1559.43 840.101 1573.86 807.024C1597.6 752.747 1614.96 684.216 1586.28 631.584C1556.5 577.124 1494.58 551.722 1435.58 540.574C1399.96 533.995 1363.79 531.802 1330.54 528.878C1301.13 526.137 1273.37 521.751 1247.25 514.989C1188.61 500.004 1138.01 473.139 1099.29 428.183C1091.8 419.594 1084.67 410.273 1078.28 400.039C1044.67 346.311 1039.19 288.562 1044.85 227.158C1048.87 183.115 1057.64 137.428 1059.47 89.3643C1059.47 87.5368 1059.65 85.8921 1059.65 84.0646C1061.29 28.3258 1055.63 -34.9058 1021.65 -80.9588C996.264 -115.316 954.433 -133.773 911.324 -140.17C889.039 -143.459 866.753 -143.459 845.564 -141.814C822.183 -139.804 798.984 -135.601 776.333 -130.301C735.781 -120.981 696.508 -108.554 657.417 -98.8682C611.203 -87.5377 565.536 -80.4106 520.052 -79.3141C436.025 -77.3038 348.711 -96.3098 277.836 -151.5C247.331 -175.258 221.027 -205.229 199.655 -238.855C191.435 -251.83 184.128 -265.171 177.37 -279.06C105.034 -428.366 123.848 -619.706 224.863 -750.372" stroke="#2C293A" stroke-miterlimit="10"/>
<path d="M2149.07 1846.14C2025.41 1850.71 1902.47 1835.91 1788.12 1794.42C1677.61 1753.85 1572.21 1684.41 1497.68 1590.66C1441.97 1520.11 1405.25 1439.34 1393.02 1349.97C1381.87 1269.38 1391.37 1187.14 1418.04 1113.31C1438.5 1057.39 1467.91 1006.59 1500.42 956.514C1514.12 935.498 1528.37 914.481 1542.99 893.282C1561.8 866.053 1581.53 835.716 1596.69 802.638C1621.35 748.727 1639.98 678.917 1611.49 625.554C1581.89 570.729 1519.06 544.778 1460.05 533.996C1424.25 527.6 1387.9 525.955 1354.29 523.579C1324.88 521.569 1296.75 517.914 1270.26 512.249C1211.08 499.456 1159.02 475.516 1118.47 432.935C1110.61 424.711 1102.94 415.756 1096.18 405.888C1060.38 354.17 1051.43 296.421 1055.08 234.834C1057.64 190.609 1065.49 144.555 1067.14 96.1267C1067.14 94.2992 1067.32 92.6545 1067.32 90.827C1068.6 34.7228 1063.67 -29.0569 1029.33 -75.2927C1003.39 -110.381 960.827 -129.204 916.804 -135.417C894.153 -138.524 871.32 -138.524 849.765 -136.331C826.019 -133.955 802.455 -129.387 779.439 -123.539C738.339 -113.305 698.7 -99.5985 659.244 -88.6335C612.664 -75.6583 566.632 -66.5207 520.417 -63.414C435.295 -57.7487 345.423 -73.0999 271.991 -127.559C240.389 -151.134 213.172 -181.288 191.252 -215.462C182.85 -228.62 175.178 -242.143 168.236 -256.215C93.5256 -407.898 113.071 -603.44 217.191 -735.569" stroke="#2C293A" stroke-miterlimit="10"/>
<path d="M2170.45 1836.46C2045.5 1841.94 1920.92 1829.33 1804.75 1789.67C1692.41 1750.75 1584.27 1682.4 1508.1 1588.46C1451.1 1517.92 1413.66 1436.42 1401.78 1345.59C1391.19 1263.9 1402.15 1180.93 1431.19 1107.1C1453.3 1051.18 1484.9 1001.1 1519.24 951.397C1533.67 930.563 1548.65 909.73 1563.99 888.714C1583.72 861.484 1604.36 831.33 1620.07 798.252C1645.64 744.524 1665.74 673.434 1637.06 619.523C1607.65 564.515 1543.9 537.834 1484.9 527.417C1448.73 521.203 1412.38 520.107 1378.4 518.462C1348.81 517 1320.5 514.259 1293.83 509.69C1233.91 499.273 1180.76 478.257 1138.01 437.869C1129.79 430.011 1121.57 421.605 1114.27 411.919C1076.27 362.211 1063.85 304.645 1065.31 242.875C1066.41 198.284 1073.35 151.866 1074.63 103.254C1074.63 101.427 1074.63 99.7818 1074.81 97.9543C1075.72 41.6672 1071.52 -22.6608 1037 -69.262C1010.51 -104.898 967.22 -124.27 922.467 -130.301C899.451 -133.407 876.252 -133.042 854.332 -130.666C830.22 -127.925 806.291 -122.808 782.909 -116.594C741.261 -105.447 701.257 -90.6438 661.436 -78.2169C614.491 -63.5969 568.093 -52.2663 521.331 -47.3321C434.929 -37.8291 342.683 -49.525 266.693 -103.436C233.996 -126.646 206.048 -157.165 183.215 -191.705C174.447 -205.045 166.592 -218.752 159.468 -233.006C82.3827 -387.064 102.659 -586.993 209.884 -720.4" stroke="#2C293A" stroke-miterlimit="10"/>
<path d="M2191.82 1826.59C2065.59 1833.17 1939.55 1822.75 1821.37 1784.74C1707.2 1747.64 1596.51 1680.2 1518.51 1586.09C1460.42 1515.55 1421.88 1433.49 1410.55 1341.02C1400.32 1258.42 1412.93 1174.35 1444.16 1100.52C1468.09 1044.6 1501.7 995.074 1538.05 946.097C1553.21 925.629 1568.92 904.978 1584.82 883.962C1605.46 856.915 1626.83 826.761 1643.27 793.501C1669.76 740.138 1691.13 667.768 1662.63 613.126C1633.41 557.753 1568.74 530.523 1509.56 520.472C1473.21 514.441 1436.67 513.71 1402.33 512.979C1372.56 512.248 1344.06 510.421 1317.03 506.766C1256.56 498.542 1202.13 480.45 1157.38 442.438C1148.61 434.945 1140.21 426.904 1132.35 417.766C1092.16 370.069 1076.09 312.685 1075.72 250.55C1075.36 205.776 1081.39 158.81 1082.3 110.015C1082.3 108.188 1082.3 106.543 1082.3 104.716C1082.85 48.0631 1079.38 -16.8131 1044.49 -63.5971C1017.45 -99.9643 973.431 -119.701 927.764 -125.549C904.383 -128.473 880.636 -127.925 858.351 -125.184C833.691 -122.26 809.579 -116.594 785.832 -109.833C743.636 -97.5885 703.267 -81.872 663.08 -67.8002C615.769 -51.5355 569.007 -38.1949 521.513 -31.0677C434.016 -17.9097 339.212 -25.9506 260.848 -79.3136C227.055 -102.34 198.194 -133.042 174.812 -168.13C165.862 -181.654 157.642 -195.543 150.335 -209.98C70.8749 -366.231 91.8816 -570.546 202.212 -705.598" stroke="#2C293A" stroke-miterlimit="10"/>
<path d="M2213.19 1816.9C2085.69 1824.21 1958.19 1816.17 1837.99 1779.98C1722 1744.71 1608.56 1678.19 1528.74 1583.89C1469.37 1513.35 1430.1 1430.57 1419.14 1336.63C1409.46 1253.12 1423.52 1168.14 1457.13 1094.31C1482.71 1038.38 1518.69 989.408 1556.69 940.979C1572.76 920.694 1589.2 900.226 1605.64 879.392C1627.19 852.345 1649.3 822.374 1666.47 789.114C1693.87 735.933 1716.7 662.285 1688.21 607.095C1659.16 551.539 1593.58 523.578 1534.4 513.892C1497.87 508.044 1461.15 508.41 1426.63 507.861C1396.67 507.313 1367.99 506.765 1340.77 504.206C1279.76 498.358 1223.87 483.19 1177.1 447.188C1167.97 440.244 1159.02 432.385 1150.8 423.613C1108.42 377.926 1088.88 320.725 1086.5 258.408C1084.67 213.268 1089.97 165.936 1090.52 116.959C1090.52 115.131 1090.52 113.304 1090.52 111.659C1090.89 54.8239 1087.78 -10.7833 1052.89 -57.75C1025.31 -94.8483 980.554 -115.134 934.157 -120.616C910.228 -123.54 886.299 -122.809 863.465 -119.702C838.44 -116.413 813.78 -110.382 789.851 -103.072C747.107 -89.9142 706.372 -72.9184 665.82 -57.5674C617.961 -39.6579 570.833 -24.307 522.975 -15.1695C434.381 1.82628 337.02 -2.55973 256.098 -55.3745C221.209 -78.2183 191.435 -109.103 167.323 -144.556C158.007 -158.08 149.604 -172.335 142.114 -186.955C60.2798 -345.582 82.0171 -554.282 195.453 -690.614" stroke="#2C293A" stroke-miterlimit="10"/>
<path d="M2234.56 1807.03C2105.6 1815.26 1976.64 1809.41 1854.61 1775.05C1736.98 1741.43 1620.62 1675.82 1539.15 1581.52C1478.5 1511.16 1438.32 1427.46 1427.91 1332.07C1418.59 1247.45 1434.3 1161.56 1470.1 1087.91C1497.5 1031.99 1535.5 983.744 1575.32 935.863C1592.12 915.761 1609.29 895.475 1626.46 875.007C1648.93 847.96 1671.95 818.172 1689.67 784.912C1717.98 731.914 1742.27 656.987 1713.78 601.065C1684.92 545.144 1618.61 516.635 1559.06 507.314C1522.34 501.649 1485.45 502.015 1450.56 502.563C1420.6 503.111 1391.55 503.111 1363.97 501.467C1302.23 497.812 1245.24 485.567 1196.47 451.941C1186.97 445.362 1177.47 438.052 1168.88 429.463C1124.31 385.603 1101.3 328.585 1096.91 266.084C1093.63 220.762 1098.01 173.065 1098.19 123.722C1098.19 121.895 1098.19 120.067 1098.19 118.24C1098.19 61.039 1095.82 -4.93376 1060.75 -52.266C1032.61 -89.9125 987.131 -110.746 939.82 -116.046C915.525 -118.787 891.231 -117.873 867.849 -114.401C842.459 -110.746 817.433 -104.167 793.321 -96.3089C750.029 -82.2371 708.747 -64.1449 668.012 -47.3319C619.788 -27.5949 572.295 -10.4163 523.705 0.731444C434.016 21.3822 334.097 20.6512 250.619 -31.4325C214.816 -53.9108 184.128 -85.1612 159.285 -120.98C149.787 -134.686 141.201 -149.124 133.347 -163.926C49.1372 -324.929 71.6052 -537.833 188.147 -675.626" stroke="#2C293A" stroke-miterlimit="10"/>
<path d="M2255.93 1797.35C2125.69 1806.48 1995.27 1802.83 1871.05 1770.12C1751.59 1738.32 1632.67 1673.62 1549.2 1579.32C1487.45 1508.97 1446.35 1424.72 1436.31 1327.68C1427.54 1242.15 1444.71 1155.34 1482.89 1081.51C1512.11 1025.59 1552.12 977.894 1593.95 930.562C1611.49 910.825 1629.39 890.722 1647.29 870.254C1670.85 843.39 1694.42 813.602 1712.87 780.341C1742.09 727.709 1767.67 651.503 1739.17 595.033C1710.49 538.929 1643.27 509.689 1583.72 500.734C1546.82 495.251 1509.56 495.982 1474.49 497.444C1444.35 498.541 1415.12 499.455 1387.17 498.906C1324.88 497.627 1266.61 488.307 1215.65 456.874C1205.6 450.66 1195.74 443.716 1186.6 435.492C1139.84 393.642 1113.35 336.807 1106.78 273.941C1102.03 228.436 1105.5 180.19 1105.5 130.665C1105.5 128.837 1105.5 127.01 1105.5 125.182C1105.13 67.799 1103.49 1.09517 1068.05 -46.4198C1039.37 -84.7973 993.159 -105.996 945.117 -111.296C920.457 -114.037 895.615 -112.941 872.051 -109.103C846.295 -105.083 820.904 -98.1381 796.427 -89.7316C752.587 -74.7461 710.939 -55.3746 669.656 -37.2824C621.067 -15.9006 573.208 3.47088 524.07 16.6289C433.102 41.1174 330.809 44.0415 244.956 -7.67677C208.057 -29.9723 176.456 -61.4055 150.883 -97.7727C141.019 -111.662 132.251 -126.282 124.213 -141.45C37.4466 -304.646 60.6453 -522.118 180.475 -661.191" stroke="#2C293A" stroke-miterlimit="10"/>
<path d="M2277.31 1787.48C2145.79 1797.71 2013.9 1796.25 1887.68 1765.18C1766.39 1735.03 1644.73 1671.43 1559.61 1576.95C1496.59 1506.59 1454.57 1421.61 1445.08 1323.11C1436.86 1236.67 1455.49 1148.77 1495.86 1075.12C1526.73 1019.2 1569.11 972.047 1612.58 925.446C1631.03 905.892 1649.66 885.972 1668.11 865.687C1692.59 838.822 1716.88 809.217 1736.06 775.956C1766.02 723.69 1793.24 646.204 1764.56 589.003C1736.06 532.533 1667.93 502.745 1608.2 494.156C1570.93 489.039 1533.67 490.135 1498.23 492.328C1467.91 494.156 1438.5 495.801 1410.37 496.166C1347.53 497.08 1287.8 490.866 1235.01 461.626C1224.6 455.961 1214.37 449.382 1204.69 441.524C1155.73 401.684 1125.77 345.032 1117.19 281.983C1110.98 236.113 1113.54 187.501 1113.17 137.793C1113.17 135.966 1113.17 134.138 1113.17 132.311C1112.44 74.5617 1111.53 7.30974 1075.91 -40.388C1046.68 -79.4965 999.552 -101.061 950.78 -106.178C925.755 -108.737 900.547 -107.457 876.435 -103.437C850.313 -99.0509 824.557 -91.741 799.715 -82.7863C755.327 -66.8871 713.313 -46.4188 671.665 -26.8645C622.711 -3.83801 574.487 17.5437 524.619 32.7119C432.555 60.8554 327.704 67.6171 239.293 16.4471C201.299 -5.48289 168.784 -37.2814 142.663 -74.0142C132.616 -88.0859 123.483 -102.889 115.263 -118.24C26.1215 -283.811 50.0508 -505.487 172.803 -646.205" stroke="#2C293A" stroke-miterlimit="10"/>
<path d="M2298.68 1777.79C2165.7 1788.94 2032.53 1789.67 1904.3 1760.43C1781.18 1732.1 1656.79 1669.42 1569.84 1574.76C1505.54 1504.58 1462.43 1418.87 1453.66 1318.54C1445.62 1231 1466.08 1142.37 1508.83 1068.72C1541.52 1012.8 1585.91 966.382 1631.21 920.146C1650.39 900.775 1669.76 881.22 1688.94 860.935C1714.33 834.071 1739.35 804.648 1759.26 771.205C1790.13 719.121 1818.81 640.356 1790.13 582.607C1761.82 525.954 1692.77 495.435 1633.04 487.211C1595.59 482.277 1558.15 483.922 1522.34 486.663C1491.84 489.039 1462.25 491.597 1433.75 493.059C1370.18 496.166 1309.35 492.877 1254.37 465.83C1243.59 460.53 1232.82 454.316 1222.77 446.824C1171.81 408.812 1138.01 352.342 1127.6 289.11C1119.93 243.057 1121.57 193.898 1120.84 144.007C1120.84 142.179 1120.84 140.352 1120.84 138.524C1119.93 80.5926 1119.56 12.6095 1083.58 -35.271C1053.8 -74.9278 1005.95 -97.0405 956.443 -101.975C930.869 -104.533 905.479 -102.888 880.819 -98.5025C854.149 -93.751 828.211 -85.8927 803.003 -76.5725C758.067 -59.7595 715.688 -38.0122 673.675 -17.1788C624.355 7.49249 575.765 30.8846 525.349 48.0631C432.189 80.0444 324.599 90.2784 233.813 39.8393C194.722 18.0921 161.477 -13.8893 134.443 -51.1703C124.031 -65.4248 114.715 -80.4103 106.312 -95.944C14.796 -263.891 39.4559 -489.953 165.313 -631.95" stroke="#2C293A" stroke-miterlimit="10"/>
<path d="M2320.05 1767.92C2185.79 1779.99 2050.98 1782.91 1920.92 1755.5C1796.16 1729 1669.03 1667.05 1580.25 1572.38C1514.67 1502.21 1470.83 1415.76 1462.43 1313.97C1454.94 1225.52 1476.86 1135.79 1521.8 1062.33C1556.32 1006.4 1602.72 960.534 1650.03 915.029C1669.94 895.841 1690.03 876.469 1709.94 856.367C1736.25 829.685 1762.19 800.445 1782.64 766.819C1814.43 714.918 1844.39 635.056 1815.89 576.576C1787.76 519.558 1717.8 488.491 1658.07 480.633C1620.44 475.881 1582.81 477.891 1546.64 481.546C1516.13 484.653 1486.18 488.125 1457.5 490.501C1393.38 495.801 1331.09 495.618 1274.28 470.764C1263.14 465.83 1251.81 459.982 1241.22 452.854C1188.06 416.853 1150.8 360.566 1138.38 297.151C1129.25 250.733 1129.98 201.39 1129.06 151.134C1129.06 149.307 1129.06 147.479 1128.88 145.652C1127.6 87.3544 1127.97 19.0059 1091.8 -29.4228C1061.48 -69.8106 1012.89 -92.2887 962.471 -97.0403C936.532 -99.5988 910.594 -97.7715 885.751 -93.02C858.716 -88.0857 832.23 -79.6791 806.839 -69.6279C761.355 -51.9011 718.611 -29.0573 676.232 -6.76183C626.364 19.5542 577.41 44.9564 526.446 64.3279C432.007 99.9641 322.041 114.036 228.699 63.9623C188.512 42.3978 154.353 10.2338 126.771 -27.4127C116.176 -41.85 106.495 -57.0183 97.9096 -72.7348C4.01892 -243.058 29.4096 -473.323 158.372 -616.781" stroke="#2C293A" stroke-miterlimit="10"/>
<path d="M2341.42 1758.24C2205.88 1771.21 2069.61 1776.51 1937.55 1750.74C1810.96 1725.89 1681.08 1665.03 1590.66 1570.19C1523.99 1500.01 1479.05 1413.02 1471.38 1309.59C1464.26 1220.22 1487.82 1129.39 1535.13 1055.93C1571.3 1000.01 1619.89 954.685 1669.03 909.729C1689.67 890.906 1710.67 871.717 1731.13 851.614C1758.53 824.933 1785.02 795.876 1806.21 762.25C1838.91 710.714 1870.32 629.39 1841.65 570.362C1813.7 513.161 1742.82 481.363 1682.91 473.87C1645.1 469.301 1607.28 471.86 1570.75 476.246C1540.06 479.901 1509.92 484.287 1480.88 487.759C1416.21 495.435 1352.65 498.176 1293.65 475.515C1281.95 471.129 1270.45 465.646 1259.3 458.702C1203.96 424.528 1163.22 368.606 1148.79 304.826C1138.2 258.225 1138.01 208.334 1136.73 157.895C1136.73 156.068 1136.55 154.24 1136.55 152.413C1134.91 93.9328 1136 24.8532 1099.47 -23.7583C1068.6 -64.877 1019.28 -87.7208 968.134 -92.2896C941.83 -94.6653 915.526 -92.6551 890.135 -87.5381C862.735 -82.2384 835.883 -73.4664 810.127 -62.8669C764.095 -44.2264 720.986 -20.286 678.242 3.47147C628.008 31.4322 578.688 59.0275 526.994 80.2265C431.459 119.7 318.936 137.244 223.219 87.9019C182.119 66.7028 147.047 34.1735 118.551 -4.02128C107.774 -18.6413 97.727 -33.9925 88.959 -49.8917C-7.3063 -222.408 18.8151 -457.241 150.883 -601.979" stroke="#2C293A" stroke-miterlimit="10"/>
<path d="M2362.79 1748.55C2225.98 1762.44 2088.24 1769.93 1953.98 1745.99C1825.57 1722.97 1692.95 1663.02 1600.71 1568.18C1532.76 1498 1487.09 1410.28 1479.78 1305.38C1473.21 1214.92 1498.23 1123.36 1547.73 1049.9C1585.73 993.976 1636.51 949.385 1687.29 904.977C1708.85 886.337 1730.4 867.331 1751.59 847.594C1779.9 821.095 1807.12 791.855 1829.04 758.412C1862.47 707.059 1895.35 624.639 1866.85 564.879C1839.09 507.313 1767.48 474.966 1707.39 467.839C1669.39 463.453 1631.4 466.377 1594.5 471.494C1563.63 475.697 1533.3 480.997 1503.89 485.566C1438.5 495.434 1373.84 501.282 1312.83 480.814C1300.77 476.794 1288.71 471.677 1277.21 465.098C1219.67 432.934 1175.46 377.195 1158.84 313.05C1146.78 266.083 1145.69 215.827 1144.04 165.022C1144.04 163.195 1143.86 161.367 1143.86 159.357C1141.85 100.512 1143.68 30.8837 1106.96 -17.9106C1075.54 -59.5776 1025.49 -82.9696 973.43 -87.3556C946.761 -89.7314 920.092 -87.3556 894.153 -82.0558C866.388 -76.3906 839.17 -67.0702 813.049 -56.1052C766.469 -36.551 722.994 -11.3316 679.885 13.8879C629.286 43.4934 579.601 73.0989 527.358 96.4909C430.728 139.62 315.648 161.002 217.373 112.207C175.177 91.1912 139.192 58.479 110.148 19.9187C99.0052 5.11595 88.9585 -10.4178 79.8252 -26.4999C-18.8148 -201.392 8.03715 -440.429 143.21 -586.811" stroke="#2C293A" stroke-miterlimit="10"/>
<path d="M2384.17 1738.68C2245.89 1753.49 2106.69 1763.17 1970.61 1741.06C1840.37 1719.68 1705.19 1660.83 1611.12 1565.8C1541.89 1495.81 1495.31 1407.17 1488.55 1300.81C1482.52 1209.44 1509.01 1116.78 1560.89 1043.5C1600.71 987.58 1653.5 943.538 1706.29 899.86C1728.57 881.403 1751.04 862.579 1772.78 843.025C1802.01 816.526 1829.95 787.469 1852.61 754.026C1886.95 702.856 1921.29 619.156 1892.61 558.849C1865.03 501.1 1792.51 468.022 1732.23 461.26C1693.87 457.057 1655.87 460.529 1618.61 466.377C1587.56 471.312 1557.05 477.525 1527.46 483.008C1461.52 495.252 1395.39 503.841 1332.37 485.566C1319.95 481.911 1307.35 477.16 1295.47 471.129C1235.92 440.792 1187.88 385.419 1169.43 321.091C1155.73 273.942 1154.09 223.137 1152.08 172.15C1152.08 170.322 1151.9 168.312 1151.9 166.484C1149.52 107.456 1152.08 37.2803 1115 -11.8795C1083.03 -54.2775 1032.25 -78.035 979.459 -82.2383C952.241 -84.4313 925.207 -81.8727 899.085 -76.2074C870.955 -70.1767 843.372 -60.4911 816.885 -48.9779C769.757 -28.3271 725.735 -2.19373 682.443 24.4878C631.479 55.738 581.428 87.3537 528.455 112.756C430.728 159.723 313.091 184.577 212.259 136.513C168.967 115.863 132.068 82.785 102.293 43.6765C90.9678 28.691 80.5558 12.9743 71.2398 -3.29042C-29.7748 -180.558 -2.19214 -423.981 136.087 -571.643" stroke="#2C293A" stroke-miterlimit="10"/>
<path d="M2405.54 1729C2265.98 1744.71 2125.33 1756.59 1987.23 1736.31C1855.16 1716.75 1717.25 1658.64 1621.35 1563.61C1551.02 1493.62 1503.53 1404.43 1497.14 1296.43C1491.47 1204.14 1519.42 1110.57 1573.67 1037.29C1615.14 981.368 1670.12 938.056 1724.74 894.745C1747.75 876.47 1770.95 858.012 1793.42 838.458C1823.56 811.959 1852.42 783.084 1875.62 749.641C1910.88 698.837 1946.68 613.858 1918 552.819C1890.6 494.705 1817.17 461.079 1756.89 454.682C1718.35 450.662 1679.99 454.683 1642.54 461.262C1611.3 466.744 1580.8 473.871 1550.66 480.45C1483.98 494.888 1416.76 506.584 1351.73 490.502C1338.76 487.395 1325.98 482.826 1313.37 477.161C1251.63 448.652 1199.94 393.461 1179.66 328.95C1164.5 281.618 1161.94 230.448 1159.57 179.095C1159.57 177.268 1159.39 175.258 1159.39 173.43C1156.83 114.036 1159.75 43.3121 1122.67 -6.03045C1090.15 -49.1595 1038.64 -73.2825 984.939 -77.303C957.356 -79.496 929.956 -76.7545 903.287 -70.7238C874.608 -64.3276 846.843 -54.0936 820.173 -42.2148C772.497 -20.6503 728.109 6.76211 684.452 34.7229C633.123 67.6179 582.707 101.244 529.185 128.656C430.18 179.278 310.168 207.97 206.778 160.272C162.39 139.804 124.761 106.544 94.2558 67.0696C82.5652 51.9013 71.9705 36.002 62.4718 19.5545C-41.1002 -159.906 -12.6043 -407.715 128.78 -556.839" stroke="#2C293A" stroke-miterlimit="10"/>
<path d="M2426.91 1719.13C2286.07 1735.76 2143.96 1750.01 2003.85 1731.37C1870.14 1713.65 1729.49 1656.45 1631.76 1561.23C1560.16 1491.24 1511.75 1401.33 1505.9 1291.86C1500.79 1198.47 1530.2 1103.99 1586.83 1030.71C1630.12 974.788 1687.29 932.025 1743.55 889.444C1767.3 871.535 1791.41 853.26 1814.25 833.705C1845.48 807.389 1874.89 778.515 1898.82 744.889C1934.81 694.267 1972.07 608.009 1943.39 546.422C1916.17 488.125 1841.83 453.768 1781.37 447.92C1742.64 444.082 1704.1 448.468 1666.47 455.778C1635.23 461.809 1604.36 469.85 1574.04 477.526C1506.82 494.339 1438.13 509.141 1371.1 495.07C1357.76 492.328 1344.43 488.308 1331.46 482.825C1267.52 456.144 1212.36 401.319 1190.07 336.625C1173.45 288.928 1169.98 237.392 1167.42 185.857C1167.24 184.029 1167.24 182.019 1167.06 180.191C1164.13 120.615 1167.79 49.1597 1130.34 -0.365591C1097.28 -44.0428 1044.85 -68.7141 990.601 -72.5519C962.653 -74.5621 934.705 -71.6383 907.671 -65.4248C878.627 -58.663 850.313 -48.0635 823.461 -35.4538C775.237 -12.9755 730.484 15.5335 686.461 44.9562C634.767 79.496 583.803 115.315 529.733 144.738C429.632 199.197 307.063 231.544 201.299 184.395C155.815 164.109 117.272 130.666 86.0361 90.6437C74.1628 75.2927 63.2027 59.2108 53.5213 42.5806C-52.4253 -139.256 -23.1987 -391.451 121.291 -541.854" stroke="#2C293A" stroke-miterlimit="10"/>
<path d="M2448.28 1709.44C2306.17 1726.99 2162.59 1743.44 2020.48 1726.62C1884.94 1710.54 1741.54 1654.44 1642.17 1559.04C1569.29 1489.23 1520.15 1398.4 1514.67 1287.29C1509.92 1192.99 1540.98 1097.6 1599.79 1024.31C1644.73 968.393 1704.1 926.178 1762.37 884.145C1787.03 866.418 1811.69 848.326 1835.25 828.955C1867.4 802.821 1897.54 773.947 1922.2 740.321C1959.1 689.882 1997.83 602.527 1969.15 540.21C1942.11 481.547 1866.85 446.642 1806.39 441.159C1767.48 437.504 1728.76 442.256 1690.76 450.479C1659.34 457.241 1628.29 466.196 1597.6 474.785C1529.83 493.791 1459.87 511.518 1390.82 499.822C1377.12 497.446 1363.42 493.791 1349.91 488.674C1283.78 463.82 1225.15 409.361 1200.67 344.302C1182.58 296.421 1178.2 244.337 1175.28 192.619C1175.09 190.792 1175.09 188.781 1174.91 186.954C1171.62 127.012 1176.01 55.0083 1138.38 5.30025C1104.77 -39.108 1051.61 -64.1447 996.447 -67.9825C968.133 -69.9927 939.82 -66.7034 912.237 -60.1244C882.828 -52.9971 854.149 -42.0322 826.932 -28.8742C778.16 -5.48217 733.041 24.1234 688.653 55.0081C636.41 91.1926 585.264 129.022 530.646 160.455C429.449 218.752 304.323 254.571 196.001 208.153C149.604 188.233 109.965 154.424 78.1812 114.036C65.9425 98.6854 54.7999 82.2379 44.9359 65.2421C-63.3854 -118.97 -33.4282 -375.368 114.166 -527.416" stroke="#2C293A" stroke-miterlimit="10"/>
<path d="M2469.65 1699.58C2326.08 1718.22 2181.04 1736.67 2036.92 1721.69C1799.08 1697.02 1534.95 1549.54 1523.07 1282.91C1518.87 1187.69 1551.39 1091.2 1612.58 1018.1C1659.34 962.179 1720.72 920.695 1780.82 879.21C1840.91 837.726 1901.38 794.597 1945.22 736.3C1983.03 686.226 2023.22 597.41 1994.54 534.544C1967.69 475.698 1891.51 440.062 1830.87 434.945C1759.45 428.732 1689.12 451.21 1620.62 472.409C1552.12 493.608 1481.06 514.441 1409.82 504.938C1326.16 493.608 1242.5 431.107 1210.71 352.525C1190.44 302.634 1185.51 247.992 1182.22 194.263C1178.57 134.138 1183.68 61.5869 1145.69 11.5133C1111.53 -33.6259 1057.64 -59.0283 1001.74 -62.6833C942.377 -66.5211 883.376 -48.0633 830.037 -21.7473C722.812 31.0674 633.488 114.767 531.012 176.902C428.536 238.854 301.035 278.511 190.156 232.458C124.396 205.228 72.3362 150.403 35.6202 88.6337C-75.0757 -97.7714 -44.3876 -358.738 106.312 -512.066" stroke="#2C293A" stroke-miterlimit="10"/>
</g>
<mask id="mask1_433_1224" style="mask-type:luminance" maskUnits="userSpaceOnUse" x="0" y="0" width="2192" height="1462">
<path d="M0 1462L2192 1462L2192 -0.00012207L0.000127812 -0.000313701L0 1462Z" fill="white"/>
</mask>
<g mask="url(#mask1_433_1224)">
<path d="M2239.86 1508.05C2168.07 1493.25 2094.27 1495.44 2021.21 1490.87C1942.29 1485.94 1854.98 1469.49 1790.86 1419.97C1715.42 1361.67 1709.39 1262.44 1753.05 1181.66C1792.69 1108.2 1862.65 1061.23 1918.73 1002.38C1956.91 962.361 1993.08 908.815 2000.75 852.711C2012.62 767.367 1925.85 703.953 1864.11 781.804C1835.98 817.258 1827.03 864.042 1801.82 901.505C1774.79 941.71 1737.16 974.788 1693.5 995.987C1648.38 1017.92 1597.6 1026.32 1547.73 1022.12C1500.24 1017.92 1461.33 990.87 1414.02 984.291C1378.59 979.357 1339.49 986.119 1313.37 1010.61C1264.05 1056.48 1270.26 1145.66 1276.66 1206.52C1285.06 1284.37 1310.45 1360.57 1351 1427.64C1391.74 1495.26 1454.57 1542.78 1499.88 1606.55C1530.56 1650.05 1550.66 1705.61 1535.5 1756.78L2239.86 1508.05Z" fill="#3A3131"/>
</g>
<mask id="mask2_433_1224" style="mask-type:luminance" maskUnits="userSpaceOnUse" x="0" y="0" width="2192" height="1462">
<path d="M0 1462L2192 1462L2192 -0.00012207L0.000127812 -0.000313701L0 1462Z" fill="white"/>
</mask>
<g mask="url(#mask2_433_1224)">
<path d="M1647.84 706.695C1606.74 685.13 1549.74 678.734 1512.48 663.566C1334.93 591.014 1483.25 332.24 1391.55 205.594C1341.14 135.784 1245.24 118.057 1159.2 116.595C1073.17 115.133 982.747 123.722 904.931 86.9892C819.991 46.967 764.277 -48.0629 770.853 -141.814L771.401 -141.083C686.279 -91.3747 609.741 -43.4943 536.127 22.1129C462.512 87.5374 400.771 170.323 376.476 265.901C352.182 361.48 369.717 470.582 436.391 543.316C497.036 609.472 589.831 639.625 678.059 636.884C780.535 633.777 878.261 582.425 981.651 608.558C1055.08 627.016 1117.19 673.434 1158.47 736.848C1221.67 834.071 1336.94 883.414 1449.64 890.724C1504.08 894.196 1564.91 895.293 1617.51 878.297C1648.02 868.246 1676.88 848.874 1691.13 820C1712.5 775.957 1688.57 728.076 1647.84 706.695Z" fill="#3A3131"/>
</g>
</svg>
